<svg width="48" height="35" viewBox="0 0 48 35" fill="none" xmlns="http://www.w3.org/2000/svg">
<path d="M43.0841 0.119365C42.1011 0.428311 42.0637 0.456397 29.556 12.964L17.245 25.2657L11.6746 19.6953C6.49741 14.5368 6.0574 14.1156 5.47695 13.8441C3.98839 13.1513 2.40622 13.3666 1.2266 14.4339C0.290403 15.2764 -0.168335 16.6246 0.0563533 17.8416C0.290403 19.0961 0.140611 18.937 7.91107 26.6794C14.7079 33.4575 15.1292 33.86 15.7003 34.1128C16.4305 34.4311 17.4322 34.5247 18.1063 34.3468C19.2485 34.0379 18.7616 34.4966 33.357 19.9013C48.4673 4.77228 47.606 5.69912 47.84 4.36035C48.1583 2.49731 46.9881 0.690447 45.1063 0.119365C44.582 -0.0397885 43.5897 -0.0397885 43.0841 0.119365Z" fill="#3B82F6"/>
</svg>
