<svg width="40" height="46" viewBox="0 0 40 46" fill="none" xmlns="http://www.w3.org/2000/svg">
<path d="M13.3906 0.63125C13.0438 0.790625 12.7344 1.11875 12.6031 1.46563C12.5469 1.61563 12.5 2.43125 12.5 3.35938V5L6.97813 5.01875C1.55938 5.04688 1.44688 5.04688 1.19375 5.24375C1.05313 5.34688 0.846875 5.55313 0.74375 5.69375C0.55625 5.9375 0.546875 6.06875 0.546875 8.75C0.546875 11.4312 0.55625 11.5625 0.74375 11.8062C1.15625 12.3687 1.37188 12.4531 2.47813 12.4812L3.5 12.5187V26.3094C3.5 41.6844 3.47188 40.8125 4.15625 42.1719C4.99063 43.8219 6.48125 44.9844 8.27188 45.3687C9.20938 45.5656 30.8094 45.5562 31.7656 45.3594C33.7625 44.9469 35.5531 43.3156 36.2469 41.2812L36.4531 40.6719L36.4813 26.5906L36.5 12.5187L37.5219 12.4812C38.6281 12.4531 38.8438 12.3687 39.2563 11.8062C39.4438 11.5625 39.4531 11.4312 39.4531 8.75C39.4531 6.06875 39.4438 5.9375 39.2563 5.69375C39.1531 5.55313 38.9469 5.34688 38.8063 5.24375C38.5531 5.04688 38.4406 5.04688 33.0313 5.01875L27.5094 5L27.4813 3.21875C27.4531 1.2875 27.425 1.20313 26.8063 0.74375C26.5531 0.546875 26.45 0.546875 20.1125 0.528125C14.8906 0.509375 13.6156 0.528125 13.3906 0.63125ZM24.5 4.25V5H20H15.5V4.25V3.5H20H24.5V4.25ZM36.5 8.75V9.5H20H3.5V8.75V8H20H36.5V8.75ZM33.4813 26.3937L33.4531 40.2969L33.2 40.775C32.825 41.4875 32.5438 41.7781 31.8875 42.1344L31.2969 42.4531H20H8.70313L8.225 42.2C7.5125 41.825 7.22188 41.5437 6.86563 40.8875L6.54688 40.2969L6.51875 26.3937L6.5 12.5H20H33.5L33.4813 26.3937Z" fill="white"/>
<path d="M11.8906 15.6313C11.5062 15.8 11.1125 16.2781 11.0469 16.6531C11.0187 16.8219 11.0094 21.8094 11.0187 27.7531C11.0469 38.4875 11.0469 38.5531 11.2437 38.8063C11.6094 39.3031 11.9094 39.4531 12.5 39.4531C13.0906 39.4531 13.3906 39.3031 13.7562 38.8063C13.9531 38.5531 13.9531 38.5156 13.9531 27.5C13.9531 16.4844 13.9531 16.4469 13.7562 16.1938C13.6531 16.0531 13.4562 15.8469 13.325 15.7531C13.0156 15.5188 12.2656 15.4531 11.8906 15.6313Z" fill="white"/>
<path d="M19.3906 15.6313C19.0062 15.8 18.6125 16.2781 18.5469 16.6531C18.5187 16.8219 18.5094 21.8094 18.5187 27.7531C18.5469 38.4875 18.5469 38.5531 18.7437 38.8063C19.1094 39.3031 19.4094 39.4531 20 39.4531C20.5906 39.4531 20.8906 39.3031 21.2562 38.8063C21.4531 38.5531 21.4531 38.5156 21.4531 27.5C21.4531 16.4844 21.4531 16.4469 21.2562 16.1938C21.1531 16.0531 20.9562 15.8469 20.825 15.7531C20.5156 15.5188 19.7656 15.4531 19.3906 15.6313Z" fill="white"/>
<path d="M26.8906 15.6313C26.5062 15.8 26.1125 16.2781 26.0469 16.6531C26.0187 16.8219 26.0094 21.8094 26.0187 27.7531C26.0469 38.4875 26.0469 38.5531 26.2437 38.8063C26.6094 39.3031 26.9094 39.4531 27.5 39.4531C28.0906 39.4531 28.3906 39.3031 28.7562 38.8063C28.9531 38.5531 28.9531 38.5156 28.9531 27.5C28.9531 16.4844 28.9531 16.4469 28.7562 16.1938C28.6531 16.0531 28.4562 15.8469 28.325 15.7531C28.0156 15.5188 27.2656 15.4531 26.8906 15.6313Z" fill="white"/>
</svg>
