<svg width="45" height="45" viewBox="0 0 45 45" fill="none" xmlns="http://www.w3.org/2000/svg">
<path d="M20.6367 0.123052C19.5205 0.430669 18.6592 1.43262 18.457 2.64551C18.4043 3.00586 18.3691 6.00293 18.3691 10.7842V18.3691H10.793C6.00293 18.3691 3.00586 18.4043 2.64551 18.457C1.59082 18.6328 0.755859 19.248 0.290039 20.1973C0.0439453 20.6982 0.0439453 20.707 0.0439453 22.5C0.0439453 24.293 0.0439453 24.3018 0.290039 24.8027C0.755859 25.752 1.59082 26.3672 2.64551 26.543C3.00586 26.5957 6.00293 26.6309 10.793 26.6309H18.3691V34.207C18.3691 38.9971 18.4043 41.9941 18.457 42.3545C18.6328 43.4004 19.2568 44.2529 20.2148 44.7188C20.6895 44.9561 20.7158 44.9561 22.5 44.9561C24.293 44.9561 24.3018 44.9561 24.8027 44.71C25.752 44.2441 26.3672 43.4092 26.543 42.3545C26.5957 41.9941 26.6309 38.9971 26.6309 34.207V26.6309H34.2158C38.9971 26.6309 41.9941 26.5957 42.3545 26.543C43.4268 26.3672 44.2354 25.7607 44.71 24.8027C44.9561 24.3018 44.9561 24.293 44.9561 22.5C44.9561 20.707 44.9561 20.6982 44.71 20.1973C44.2354 19.2393 43.4268 18.6328 42.3545 18.457C41.9941 18.4043 38.9971 18.3691 34.2158 18.3691H26.6309V10.7842C26.6309 6.00293 26.5957 3.00586 26.543 2.64551C26.3672 1.59082 25.752 0.755864 24.8027 0.290044C24.3193 0.0527391 24.2578 0.0439501 22.6758 0.0263719C21.5508 0.00879383 20.9268 0.035161 20.6367 0.123052Z" fill="white"/>
</svg>
